# Blender v2.90.0 OBJ File: 'untitled.blend'
# www.blender.org
mtllib weirdmaze.mtl
o Cube
v -82.465591 -1.058779 24.301088
v -82.465591 1.058779 24.301088
v -82.445702 -1.058779 20.818810
v -82.445702 1.058779 20.818810
v -90.299706 -1.300589 29.250193
v -90.299706 1.300589 29.250193
v -90.180595 -1.300589 25.573530
v -90.180595 1.300589 25.573530
v -78.616676 -0.648154 14.572262
v -78.616676 0.648154 14.572262
v -78.592636 -0.648154 12.744666
v -78.592636 0.648154 12.744666
v -78.613754 -1.058779 27.080412
v -78.613754 1.058779 27.080412
v -78.618729 1.058779 23.598133
v -78.618729 -1.058779 23.598133
v -78.615211 -1.300589 34.619991
v -78.615211 1.300589 34.619991
v -78.496101 1.300589 30.943329
v -78.496101 -1.300589 30.943329
v -74.770035 -1.058779 24.301088
v -74.770035 1.058779 24.301088
v -74.789925 -1.058779 20.818810
v -74.789925 1.058779 20.818810
v -66.935921 -1.300589 29.250193
v -66.935921 1.300589 29.250193
v -67.055031 -1.300589 25.573530
v -67.055031 1.300589 25.573530
v -78.618950 -0.648154 14.572262
v -78.618950 0.648154 14.572262
v -78.642990 -0.648154 12.744666
v -78.642990 0.648154 12.744666
v -78.621872 -1.058779 27.080412
v -78.621872 1.058779 27.080412
v -78.616898 1.058779 23.598133
v -78.616898 -1.058779 23.598133
v -78.620415 -1.300589 34.619991
v -78.620415 1.300589 34.619991
v -78.739525 1.300589 30.943329
v -78.739525 -1.300589 30.943329
v -82.465591 -1.058779 -24.301088
v -82.465591 1.058779 -24.301088
v -82.445702 -1.058779 -20.818810
v -82.445702 1.058779 -20.818810
v -99.154282 -1.058779 0.000000
v -99.154282 1.058779 0.000000
v -96.292984 -1.058779 0.000000
v -96.292984 1.058779 0.000000
v -90.299706 -1.300589 -29.250193
v -90.299706 1.300589 -29.250193
v -90.180595 -1.300589 -25.573530
v -90.180595 1.300589 -25.573530
v -110.705170 -1.300589 0.000000
v -110.705170 1.300589 0.000000
v -107.190399 -1.300589 0.000000
v -107.190399 1.300589 0.000000
v -78.616676 -0.648154 -14.572262
v -78.616676 0.648154 -14.572262
v -78.592636 -0.648154 -12.744666
v -78.592636 0.648154 -12.744666
v -89.085159 -0.648154 0.000000
v -89.085159 0.648154 0.000000
v -87.333557 -0.648154 0.000000
v -87.333557 0.648154 0.000000
v -78.613754 -1.058779 -27.080412
v -78.613754 1.058779 -27.080412
v -78.618729 1.058779 -23.598133
v -78.618729 -1.058779 -23.598133
v -78.615211 -1.300589 -34.619991
v -78.615211 1.300589 -34.619991
v -78.496101 1.300589 -30.943329
v -78.496101 -1.300589 -30.943329
v -74.770035 -1.058779 -24.301088
v -74.770035 1.058779 -24.301088
v -74.789925 -1.058779 -20.818810
v -74.789925 1.058779 -20.818810
v -58.081345 -1.058779 0.000000
v -58.081345 1.058779 0.000000
v -60.942642 -1.058779 0.000000
v -60.942642 1.058779 0.000000
v -66.935921 -1.300589 -29.250193
v -66.935921 1.300589 -29.250193
v -67.055031 -1.300589 -25.573530
v -67.055031 1.300589 -25.573530
v -46.530453 -1.300589 0.000000
v -46.530453 1.300589 0.000000
v -50.045227 -1.300589 0.000000
v -50.045227 1.300589 0.000000
v -78.618950 -0.648154 -14.572262
v -78.618950 0.648154 -14.572262
v -78.642990 -0.648154 -12.744666
v -78.642990 0.648154 -12.744666
v -68.150467 -0.648154 0.000000
v -68.150467 0.648154 0.000000
v -69.902069 -0.648154 0.000000
v -69.902069 0.648154 0.000000
v -78.621872 -1.058779 -27.080412
v -78.621872 1.058779 -27.080412
v -78.616898 1.058779 -23.598133
v -78.616898 -1.058779 -23.598133
v -78.620415 -1.300589 -34.619991
v -78.620415 1.300589 -34.619991
v -78.739525 1.300589 -30.943329
v -78.739525 -1.300589 -30.943329
vt 0.375000 0.625000
vt 0.625000 0.625000
vt 0.625000 0.750000
vt 0.375000 0.750000
vt 0.875000 0.750000
vt 0.875000 0.750000
vt 0.625000 0.750000
vt 0.125000 0.625000
vt 0.125000 0.750000
vt 0.875000 0.625000
vt 0.375000 0.000000
vt 0.625000 0.000000
vt 0.625000 0.125000
vt 0.375000 0.125000
vt 0.375000 0.625000
vt 0.625000 0.625000
vt 0.625000 0.750000
vt 0.375000 0.750000
vt 0.125000 0.750000
vt 0.375000 0.750000
vt 0.125000 0.750000
vt 0.125000 0.625000
vt 0.875000 0.625000
vt 0.875000 0.750000
vt 0.375000 0.000000
vt 0.625000 0.000000
vt 0.625000 0.125000
vt 0.375000 0.125000
vt 0.375000 0.625000
vt 0.625000 0.625000
vt 0.625000 0.750000
vt 0.375000 0.750000
vt 0.625000 1.000000
vt 0.375000 1.000000
vt 0.125000 0.625000
vt 0.125000 0.750000
vt 0.875000 0.625000
vt 0.875000 0.750000
vt 0.375000 0.000000
vt 0.625000 0.000000
vt 0.625000 0.125000
vt 0.375000 0.125000
vt 0.375000 0.750000
vt 0.625000 1.000000
vt 0.375000 1.000000
vt 0.375000 0.000000
vt 0.625000 0.000000
vt 0.125000 0.750000
vt 0.625000 0.750000
vt 0.625000 1.000000
vt 0.375000 1.000000
vt 0.875000 0.750000
vt 0.375000 0.000000
vt 0.625000 0.000000
vt 0.375000 0.625000
vt 0.375000 0.750000
vt 0.625000 0.750000
vt 0.625000 0.625000
vt 0.625000 0.750000
vt 0.875000 0.750000
vt 0.875000 0.750000
vt 0.125000 0.625000
vt 0.125000 0.750000
vt 0.875000 0.625000
vt 0.375000 0.000000
vt 0.375000 0.125000
vt 0.625000 0.125000
vt 0.625000 0.000000
vt 0.375000 0.625000
vt 0.375000 0.750000
vt 0.625000 0.750000
vt 0.625000 0.625000
vt 0.125000 0.750000
vt 0.125000 0.750000
vt 0.375000 0.750000
vt 0.125000 0.625000
vt 0.875000 0.750000
vt 0.875000 0.625000
vt 0.375000 0.000000
vt 0.375000 0.125000
vt 0.625000 0.125000
vt 0.625000 0.000000
vt 0.375000 0.625000
vt 0.375000 0.750000
vt 0.625000 0.750000
vt 0.625000 0.625000
vt 0.375000 1.000000
vt 0.625000 1.000000
vt 0.125000 0.625000
vt 0.125000 0.750000
vt 0.875000 0.750000
vt 0.875000 0.625000
vt 0.375000 0.000000
vt 0.375000 0.125000
vt 0.625000 0.125000
vt 0.625000 0.000000
vt 0.375000 0.750000
vt 0.375000 1.000000
vt 0.625000 1.000000
vt 0.625000 0.000000
vt 0.375000 0.000000
vt 0.125000 0.750000
vt 0.375000 1.000000
vt 0.625000 1.000000
vt 0.625000 0.750000
vt 0.875000 0.750000
vt 0.625000 0.000000
vt 0.375000 0.000000
vt 0.375000 0.750000
vt 0.625000 0.750000
vt 0.625000 0.750000
vt 0.875000 0.750000
vt 0.875000 0.750000
vt 0.125000 0.750000
vt 0.375000 0.000000
vt 0.625000 0.000000
vt 0.375000 0.750000
vt 0.625000 0.750000
vt 0.125000 0.750000
vt 0.125000 0.750000
vt 0.375000 0.750000
vt 0.875000 0.750000
vt 0.375000 0.000000
vt 0.625000 0.000000
vt 0.375000 0.750000
vt 0.625000 0.750000
vt 0.375000 1.000000
vt 0.625000 1.000000
vt 0.125000 0.750000
vt 0.875000 0.750000
vt 0.375000 0.000000
vt 0.625000 0.000000
vt 0.375000 0.750000
vt 0.375000 1.000000
vt 0.625000 1.000000
vt 0.625000 0.000000
vt 0.375000 0.000000
vt 0.125000 0.750000
vt 0.375000 1.000000
vt 0.625000 1.000000
vt 0.625000 0.750000
vt 0.875000 0.750000
vt 0.625000 0.000000
vt 0.375000 0.000000
vt 0.625000 0.750000
vt 0.375000 0.750000
vt 0.875000 0.750000
vt 0.875000 0.750000
vt 0.625000 0.750000
vt 0.125000 0.750000
vt 0.375000 0.000000
vt 0.625000 0.000000
vt 0.625000 0.750000
vt 0.375000 0.750000
vt 0.125000 0.750000
vt 0.375000 0.750000
vt 0.125000 0.750000
vt 0.875000 0.750000
vt 0.375000 0.000000
vt 0.625000 0.000000
vt 0.625000 0.750000
vt 0.375000 0.750000
vt 0.625000 1.000000
vt 0.375000 1.000000
vt 0.125000 0.750000
vt 0.875000 0.750000
vt 0.375000 0.000000
vt 0.625000 0.000000
vt 0.375000 0.750000
vt 0.625000 1.000000
vt 0.375000 1.000000
vt 0.375000 0.000000
vt 0.625000 0.000000
vt 0.125000 0.750000
vt 0.625000 0.750000
vt 0.625000 1.000000
vt 0.375000 1.000000
vt 0.875000 0.750000
vt 0.375000 0.000000
vt 0.625000 0.000000
vn 0.8326 0.0000 -0.5538
vn 0.0000 1.0000 0.0000
vn 0.0000 -1.0000 0.0000
vn -0.8243 0.0000 0.5661
vn -0.8201 0.0000 0.5722
vn 0.8247 0.0000 -0.5656
vn 0.9999 0.0000 0.0132
vn -0.8122 0.0000 0.5834
vn 1.0000 0.0000 -0.0014
vn 0.5876 0.0000 -0.8091
vn -0.5851 0.0000 0.8109
vn 0.9995 0.0000 0.0324
vn 0.4176 0.0000 -0.9086
vn -0.4176 0.0000 0.9086
vn -0.8326 0.0000 -0.5538
vn 0.8243 0.0000 0.5661
vn 0.8201 0.0000 0.5722
vn -0.8247 0.0000 -0.5656
vn -0.9999 0.0000 0.0132
vn 0.8122 0.0000 0.5834
vn -1.0000 0.0000 -0.0014
vn -0.5876 0.0000 -0.8091
vn 0.5851 0.0000 0.8109
vn -0.9995 0.0000 0.0324
vn -0.4176 0.0000 -0.9086
vn 0.4176 0.0000 0.9086
vn 0.8326 0.0000 0.5538
vn -0.8243 0.0000 -0.5661
vn -0.8201 0.0000 -0.5722
vn 0.8247 0.0000 0.5656
vn 0.9999 0.0000 -0.0132
vn -0.8122 0.0000 -0.5834
vn 1.0000 0.0000 0.0014
vn 0.5876 0.0000 0.8091
vn -0.5851 0.0000 -0.8109
vn 0.9995 0.0000 -0.0324
vn -0.8326 0.0000 0.5538
vn 0.8243 0.0000 -0.5661
vn 0.8201 0.0000 -0.5722
vn -0.8247 0.0000 0.5656
vn -0.9999 0.0000 -0.0132
vn 0.8122 0.0000 -0.5834
vn -1.0000 0.0000 0.0014
vn -0.5876 0.0000 0.8091
vn 0.5851 0.0000 -0.8109
vn -0.9995 0.0000 -0.0324
usemtl None
s off
f 47/1/1 48/2/1 4/3/1 3/4/1
f 4/3/2 2/5/2 14/6/2 15/7/2
f 45/8/3 47/1/3 3/4/3 1/9/3
f 48/2/2 46/10/2 2/5/2 4/3/2
f 1/11/4 2/12/4 46/13/4 45/14/4
f 55/15/1 56/16/1 8/17/1 7/18/1
f 5/19/3 7/18/3 20/20/3 17/21/3
f 53/22/3 55/15/3 7/18/3 5/19/3
f 56/16/2 54/23/2 6/24/2 8/17/2
f 5/25/5 6/26/5 54/27/5 53/28/5
f 63/29/6 64/30/6 12/31/6 11/32/6
f 11/32/7 12/31/7 10/33/7 9/34/7
f 61/35/3 63/29/3 11/32/3 9/36/3
f 64/30/2 62/37/2 10/38/2 12/31/2
f 9/39/8 10/40/8 62/41/8 61/42/8
f 16/43/9 15/7/9 14/44/9 13/45/9
f 3/4/10 4/3/10 15/7/10 16/43/10
f 2/12/11 1/11/11 13/46/11 14/47/11
f 1/9/3 3/4/3 16/43/3 13/48/3
f 20/20/12 19/49/12 18/50/12 17/51/12
f 8/17/2 6/24/2 18/52/2 19/49/2
f 7/18/13 8/17/13 19/49/13 20/20/13
f 6/26/14 5/25/14 17/53/14 18/54/14
f 79/55/15 23/56/15 24/57/15 80/58/15
f 24/57/2 35/59/2 34/60/2 22/61/2
f 77/62/3 21/63/3 23/56/3 79/55/3
f 80/58/2 24/57/2 22/61/2 78/64/2
f 21/65/16 77/66/16 78/67/16 22/68/16
f 87/69/15 27/70/15 28/71/15 88/72/15
f 25/73/3 37/74/3 40/75/3 27/70/3
f 85/76/3 25/73/3 27/70/3 87/69/3
f 88/72/2 28/71/2 26/77/2 86/78/2
f 25/79/17 85/80/17 86/81/17 26/82/17
f 95/83/18 31/84/18 32/85/18 96/86/18
f 31/84/19 29/87/19 30/88/19 32/85/19
f 93/89/3 29/90/3 31/84/3 95/83/3
f 96/86/2 32/85/2 30/91/2 94/92/2
f 29/93/20 93/94/20 94/95/20 30/96/20
f 36/97/21 33/98/21 34/99/21 35/59/21
f 23/56/22 36/97/22 35/59/22 24/57/22
f 22/68/23 34/100/23 33/101/23 21/65/23
f 21/63/3 33/102/3 36/97/3 23/56/3
f 40/75/24 37/103/24 38/104/24 39/105/24
f 28/71/2 39/105/2 38/106/2 26/77/2
f 27/70/25 40/75/25 39/105/25 28/71/25
f 26/82/26 38/107/26 37/108/26 25/79/26
f 47/1/27 43/109/27 44/110/27 48/2/27
f 44/110/2 67/111/2 66/112/2 42/113/2
f 45/8/3 41/114/3 43/109/3 47/1/3
f 48/2/2 44/110/2 42/113/2 46/10/2
f 41/115/28 45/14/28 46/13/28 42/116/28
f 55/15/27 51/117/27 52/118/27 56/16/27
f 49/119/3 69/120/3 72/121/3 51/117/3
f 53/22/3 49/119/3 51/117/3 55/15/3
f 56/16/2 52/118/2 50/122/2 54/23/2
f 49/123/29 53/28/29 54/27/29 50/124/29
f 63/29/30 59/125/30 60/126/30 64/30/30
f 59/125/31 57/127/31 58/128/31 60/126/31
f 61/35/3 57/129/3 59/125/3 63/29/3
f 64/30/2 60/126/2 58/130/2 62/37/2
f 57/131/32 61/42/32 62/41/32 58/132/32
f 68/133/33 65/134/33 66/135/33 67/111/33
f 43/109/34 68/133/34 67/111/34 44/110/34
f 42/116/35 66/136/35 65/137/35 41/115/35
f 41/114/3 65/138/3 68/133/3 43/109/3
f 72/121/36 69/139/36 70/140/36 71/141/36
f 52/118/2 71/141/2 70/142/2 50/122/2
f 51/117/26 72/121/26 71/141/26 52/118/26
f 50/124/25 70/143/25 69/144/25 49/123/25
f 79/55/37 80/58/37 76/145/37 75/146/37
f 76/145/2 74/147/2 98/148/2 99/149/2
f 77/62/3 79/55/3 75/146/3 73/150/3
f 80/58/2 78/64/2 74/147/2 76/145/2
f 73/151/38 74/152/38 78/67/38 77/66/38
f 87/69/37 88/72/37 84/153/37 83/154/37
f 81/155/3 83/154/3 104/156/3 101/157/3
f 85/76/3 87/69/3 83/154/3 81/155/3
f 88/72/2 86/78/2 82/158/2 84/153/2
f 81/159/39 82/160/39 86/81/39 85/80/39
f 95/83/40 96/86/40 92/161/40 91/162/40
f 91/162/41 92/161/41 90/163/41 89/164/41
f 93/89/3 95/83/3 91/162/3 89/165/3
f 96/86/2 94/92/2 90/166/2 92/161/2
f 89/167/42 90/168/42 94/95/42 93/94/42
f 100/169/43 99/149/43 98/170/43 97/171/43
f 75/146/44 76/145/44 99/149/44 100/169/44
f 74/152/45 73/151/45 97/172/45 98/173/45
f 73/150/3 75/146/3 100/169/3 97/174/3
f 104/156/46 103/175/46 102/176/46 101/177/46
f 84/153/2 82/158/2 102/178/2 103/175/2
f 83/154/14 84/153/14 103/175/14 104/156/14
f 82/160/13 81/159/13 101/179/13 102/180/13
